<?xml version="1.0" encoding="UTF-8" standalone="no"?>
<!DOCTYPE svg PUBLIC "-//W3C//DTD SVG 1.1//EN" "http://www.w3.org/Graphics/SVG/1.1/DTD/svg11.dtd">
<svg width="100%" height="100%" viewBox="0 0 32 41" version="1.1" xmlns="http://www.w3.org/2000/svg" xmlns:xlink="http://www.w3.org/1999/xlink" xml:space="preserve" xmlns:serif="http://www.serif.com/" style="fill-rule:evenodd;clip-rule:evenodd;stroke-linejoin:round;stroke-miterlimit:2;">
    <g transform="matrix(1,0,0,1,-2.14751e-07,4)">
        <path d="M15.998,2C15.723,2 15.612,2.103 15.479,2.191C15.345,2.28 15.213,2.387 15.07,2.512C14.786,2.761 14.466,3.078 14.15,3.395C13.835,3.711 13.523,4.027 13.271,4.264C13.146,4.382 13.034,4.48 12.953,4.543C12.927,4.564 12.909,4.571 12.889,4.582C12.868,4.582 12.853,4.584 12.824,4.578C12.727,4.563 12.586,4.533 12.422,4.492C12.095,4.411 11.675,4.289 11.254,4.17C10.833,4.051 10.412,3.934 10.049,3.857C9.867,3.819 9.701,3.792 9.543,3.781C9.385,3.77 9.239,3.736 8.998,3.877C8.761,4.015 8.716,4.157 8.645,4.301C8.573,4.445 8.51,4.604 8.449,4.783C8.327,5.142 8.211,5.576 8.096,6.008C7.981,6.44 7.867,6.87 7.768,7.201C7.718,7.367 7.671,7.507 7.633,7.602C7.62,7.633 7.609,7.648 7.598,7.668C7.579,7.679 7.567,7.688 7.539,7.699C7.447,7.735 7.308,7.779 7.146,7.826C6.822,7.919 6.401,8.024 5.977,8.131C5.552,8.238 5.128,8.347 4.775,8.463C4.599,8.521 4.441,8.579 4.299,8.648C4.156,8.718 4.013,8.76 3.875,9.002C3.739,9.241 3.769,9.387 3.779,9.547C3.789,9.707 3.817,9.877 3.854,10.063C3.927,10.434 4.042,10.867 4.158,11.299C4.275,11.73 4.392,12.16 4.471,12.496C4.51,12.664 4.54,12.809 4.555,12.91C4.559,12.943 4.557,12.962 4.557,12.984C4.546,13.003 4.54,13.018 4.521,13.041C4.46,13.118 4.363,13.226 4.246,13.348C4.012,13.591 3.699,13.891 3.385,14.195C3.071,14.5 2.757,14.808 2.51,15.084C2.386,15.222 2.278,15.351 2.189,15.482C2.101,15.614 1.999,15.726 2,16.004C2.001,16.279 2.101,16.388 2.189,16.521C2.278,16.655 2.387,16.789 2.512,16.932C2.761,17.216 3.076,17.534 3.393,17.85C3.709,18.165 4.027,18.477 4.264,18.729C4.382,18.854 4.48,18.966 4.543,19.047C4.563,19.073 4.571,19.09 4.582,19.109C4.582,19.131 4.585,19.148 4.58,19.178C4.565,19.276 4.535,19.416 4.494,19.58C4.413,19.907 4.291,20.325 4.172,20.746C4.053,21.167 3.936,21.59 3.859,21.953C3.821,22.135 3.792,22.299 3.781,22.457C3.77,22.615 3.737,22.761 3.877,23.002C4.015,23.239 4.157,23.286 4.301,23.357C4.445,23.429 4.604,23.49 4.783,23.551C5.141,23.673 5.574,23.791 6.006,23.906C6.438,24.021 6.868,24.133 7.199,24.232C7.365,24.282 7.507,24.329 7.602,24.367C7.632,24.379 7.647,24.391 7.666,24.402C7.677,24.421 7.686,24.433 7.697,24.461C7.733,24.553 7.778,24.692 7.824,24.854C7.918,25.178 8.022,25.599 8.129,26.023C8.236,26.448 8.346,26.874 8.461,27.227C8.519,27.403 8.577,27.561 8.646,27.703C8.716,27.846 8.76,27.989 9.002,28.127C9.241,28.263 9.387,28.23 9.547,28.221C9.707,28.211 9.875,28.184 10.061,28.148C10.432,28.074 10.865,27.96 11.297,27.844C11.729,27.727 12.158,27.608 12.494,27.529C12.662,27.49 12.809,27.461 12.91,27.447C12.944,27.443 12.965,27.445 12.988,27.445C13.006,27.456 13.02,27.461 13.041,27.479C13.118,27.541 13.224,27.639 13.346,27.756C13.589,27.99 13.89,28.302 14.195,28.615C14.5,28.929 14.808,29.243 15.084,29.49C15.222,29.614 15.351,29.722 15.482,29.811C15.614,29.9 15.723,30 16,30C16.001,30 16.001,30 16.002,30C16.277,30 16.388,29.899 16.521,29.811C16.655,29.722 16.787,29.615 16.93,29.49C17.214,29.241 17.534,28.924 17.85,28.607C18.165,28.291 18.477,27.975 18.729,27.738C18.854,27.62 18.966,27.522 19.047,27.459C19.073,27.438 19.091,27.429 19.111,27.418C19.132,27.418 19.147,27.416 19.176,27.422C19.273,27.437 19.414,27.467 19.578,27.508C19.905,27.589 20.325,27.709 20.746,27.828C21.167,27.947 21.588,28.066 21.951,28.143C22.133,28.181 22.299,28.208 22.457,28.219C22.615,28.23 22.761,28.266 23.002,28.125C23.239,27.987 23.284,27.845 23.355,27.701C23.427,27.557 23.49,27.396 23.551,27.217C23.673,26.858 23.789,26.426 23.904,25.994C24.019,25.562 24.133,25.131 24.232,24.801C24.282,24.635 24.329,24.495 24.367,24.4C24.379,24.37 24.389,24.354 24.4,24.334C24.419,24.323 24.432,24.314 24.461,24.303C24.553,24.267 24.692,24.223 24.854,24.176C25.178,24.083 25.599,23.978 26.023,23.871C26.448,23.764 26.872,23.654 27.225,23.539C27.401,23.481 27.559,23.423 27.701,23.354C27.844,23.284 27.987,23.24 28.125,22.998C28.261,22.759 28.231,22.615 28.221,22.455C28.211,22.295 28.183,22.125 28.146,21.939C28.073,21.568 27.958,21.135 27.842,20.703C27.725,20.271 27.608,19.842 27.529,19.506C27.49,19.338 27.46,19.193 27.445,19.092C27.441,19.06 27.443,19.04 27.443,19.018C27.454,18.999 27.46,18.985 27.479,18.961C27.54,18.884 27.637,18.776 27.754,18.654C27.988,18.411 28.301,18.11 28.615,17.805C28.929,17.5 29.243,17.192 29.49,16.916C29.614,16.778 29.722,16.649 29.811,16.518C29.899,16.386 30.001,16.276 30,15.998C29.999,15.723 29.899,15.614 29.811,15.48C29.722,15.346 29.613,15.213 29.488,15.07C29.239,14.786 28.924,14.468 28.607,14.152C28.291,13.837 27.973,13.523 27.736,13.271C27.618,13.146 27.52,13.036 27.457,12.955C27.437,12.929 27.429,12.912 27.418,12.893C27.418,12.871 27.415,12.854 27.42,12.824C27.435,12.726 27.465,12.586 27.506,12.422C27.587,12.095 27.709,11.677 27.828,11.256C27.947,10.835 28.064,10.412 28.141,10.049C28.179,9.867 28.208,9.701 28.219,9.543C28.23,9.385 28.263,9.239 28.123,8.998C27.985,8.761 27.843,8.716 27.699,8.645C27.555,8.573 27.396,8.512 27.217,8.451C26.859,8.329 26.426,8.211 25.994,8.096C25.562,7.981 25.132,7.869 24.801,7.77C24.635,7.72 24.493,7.673 24.398,7.635C24.368,7.622 24.352,7.611 24.332,7.6C24.322,7.582 24.313,7.57 24.303,7.543C24.267,7.451 24.222,7.312 24.176,7.15C24.082,6.826 23.978,6.403 23.871,5.979C23.764,5.554 23.654,5.13 23.539,4.777C23.481,4.601 23.423,4.443 23.354,4.301C23.284,4.158 23.24,4.015 22.998,3.877C22.759,3.741 22.613,3.772 22.453,3.781C22.293,3.791 22.125,3.818 21.939,3.854C21.568,3.928 21.135,4.042 20.703,4.158C20.271,4.275 19.842,4.394 19.506,4.473C19.338,4.512 19.191,4.541 19.09,4.555C19.056,4.559 19.037,4.559 19.014,4.559C18.996,4.548 18.981,4.542 18.959,4.523C18.882,4.461 18.776,4.365 18.654,4.248C18.411,4.014 18.11,3.7 17.805,3.387C17.5,3.073 17.192,2.761 16.916,2.514C16.778,2.39 16.649,2.282 16.518,2.193C16.386,2.104 16.277,2.002 16,2.002C15.999,2.002 15.999,2.002 15.998,2.002L15.998,2ZM15.996,3.051C16.062,3.099 16.145,3.163 16.248,3.256C16.486,3.469 16.786,3.772 17.088,4.082C17.39,4.392 17.694,4.71 17.961,4.967C18.094,5.095 18.216,5.208 18.334,5.303C18.452,5.397 18.534,5.481 18.75,5.539C18.964,5.596 19.079,5.566 19.23,5.549C19.382,5.527 19.55,5.491 19.734,5.447C20.102,5.361 20.536,5.242 20.963,5.127C21.39,5.012 21.811,4.9 22.133,4.836C22.276,4.808 22.388,4.793 22.473,4.785C22.506,4.859 22.545,4.956 22.588,5.088C22.687,5.391 22.794,5.805 22.9,6.225C23.006,6.644 23.112,7.072 23.215,7.428C23.266,7.606 23.316,7.765 23.371,7.906C23.426,8.047 23.455,8.16 23.613,8.318C23.77,8.475 23.883,8.507 24.025,8.564C24.168,8.621 24.331,8.674 24.512,8.729C24.874,8.838 25.309,8.951 25.736,9.064C26.164,9.178 26.584,9.295 26.895,9.4C27.032,9.447 27.136,9.489 27.213,9.525C27.205,9.606 27.191,9.71 27.162,9.846C27.097,10.158 26.983,10.568 26.865,10.984C26.747,11.401 26.624,11.824 26.535,12.184C26.491,12.363 26.454,12.526 26.432,12.676C26.409,12.825 26.378,12.938 26.436,13.154C26.493,13.368 26.575,13.453 26.67,13.574C26.765,13.695 26.878,13.821 27.008,13.959C27.267,14.234 27.587,14.549 27.9,14.861C28.214,15.174 28.52,15.486 28.736,15.732C28.832,15.842 28.9,15.93 28.949,16C28.902,16.066 28.838,16.149 28.746,16.252C28.533,16.489 28.23,16.788 27.92,17.09C27.609,17.392 27.29,17.696 27.033,17.963C26.905,18.096 26.792,18.22 26.697,18.338C26.603,18.456 26.519,18.537 26.461,18.754C26.404,18.968 26.433,19.082 26.455,19.234C26.477,19.386 26.512,19.552 26.555,19.736C26.641,20.104 26.762,20.538 26.877,20.965C26.992,21.392 27.102,21.815 27.166,22.137C27.194,22.279 27.209,22.39 27.217,22.475C27.143,22.509 27.046,22.549 26.914,22.592C26.611,22.691 26.199,22.798 25.779,22.904C25.36,23.01 24.932,23.114 24.576,23.217C24.398,23.268 24.239,23.318 24.098,23.373C23.957,23.428 23.842,23.457 23.684,23.615C23.527,23.772 23.497,23.887 23.439,24.029C23.382,24.172 23.328,24.333 23.273,24.514C23.164,24.875 23.051,25.311 22.938,25.738C22.824,26.166 22.709,26.588 22.604,26.898C22.557,27.037 22.513,27.139 22.477,27.217C22.396,27.207 22.293,27.195 22.158,27.166C21.846,27.1 21.434,26.987 21.018,26.869C20.601,26.751 20.18,26.628 19.82,26.539C19.641,26.495 19.476,26.458 19.326,26.436C19.177,26.413 19.064,26.38 18.848,26.436C18.634,26.493 18.55,26.577 18.43,26.672C18.309,26.767 18.181,26.88 18.043,27.01C17.768,27.268 17.453,27.589 17.141,27.902C16.828,28.216 16.518,28.522 16.271,28.738C16.162,28.834 16.072,28.902 16.002,28.951C15.936,28.903 15.855,28.838 15.752,28.746C15.514,28.533 15.214,28.23 14.912,27.92C14.61,27.61 14.306,27.292 14.039,27.035C13.906,26.907 13.784,26.794 13.666,26.699C13.548,26.605 13.466,26.519 13.25,26.461C13.036,26.404 12.921,26.435 12.77,26.461C12.618,26.483 12.45,26.517 12.266,26.561C11.898,26.647 11.464,26.766 11.037,26.881C10.61,26.996 10.189,27.106 9.867,27.17C9.724,27.198 9.612,27.215 9.527,27.223C9.494,27.149 9.455,27.051 9.412,26.92C9.313,26.617 9.206,26.205 9.1,25.785C8.994,25.365 8.888,24.938 8.785,24.582C8.734,24.404 8.684,24.244 8.629,24.104C8.574,23.963 8.545,23.85 8.387,23.691C8.23,23.535 8.117,23.503 7.975,23.445C7.832,23.388 7.669,23.336 7.488,23.281C7.126,23.172 6.691,23.059 6.264,22.945C5.836,22.831 5.416,22.715 5.105,22.609C4.968,22.562 4.864,22.52 4.787,22.484C4.795,22.403 4.809,22.299 4.838,22.164C4.903,21.852 5.017,21.442 5.135,21.025C5.253,20.609 5.376,20.186 5.465,19.826C5.509,19.646 5.546,19.483 5.568,19.334C5.591,19.184 5.622,19.072 5.564,18.855C5.507,18.641 5.425,18.556 5.33,18.436C5.235,18.315 5.122,18.189 4.992,18.051C4.733,17.775 4.413,17.461 4.1,17.148C3.786,16.836 3.48,16.524 3.264,16.277C3.168,16.168 3.1,16.08 3.051,16.01C3.098,15.944 3.162,15.861 3.254,15.758C3.467,15.52 3.77,15.222 4.08,14.92C4.391,14.618 4.71,14.314 4.967,14.047C5.095,13.913 5.208,13.79 5.303,13.672C5.397,13.554 5.481,13.472 5.539,13.256C5.596,13.042 5.567,12.927 5.545,12.775C5.523,12.623 5.488,12.457 5.445,12.273C5.359,11.906 5.238,11.472 5.123,11.045C5.008,10.618 4.898,10.195 4.834,9.873C4.806,9.73 4.791,9.62 4.783,9.535C4.857,9.501 4.954,9.461 5.086,9.418C5.389,9.319 5.801,9.211 6.221,9.105C6.64,9 7.068,8.896 7.424,8.793C7.602,8.742 7.761,8.692 7.902,8.637C8.043,8.582 8.158,8.553 8.316,8.395C8.473,8.238 8.503,8.123 8.561,7.98C8.618,7.838 8.672,7.677 8.727,7.496C8.836,7.134 8.949,6.699 9.063,6.271C9.176,5.844 9.291,5.422 9.396,5.111C9.443,4.973 9.487,4.87 9.523,4.793C9.604,4.803 9.707,4.815 9.842,4.844C10.154,4.91 10.566,5.023 10.982,5.141C11.399,5.259 11.82,5.382 12.18,5.471C12.359,5.515 12.524,5.552 12.674,5.574C12.823,5.597 12.936,5.63 13.152,5.574C13.366,5.517 13.45,5.433 13.57,5.338C13.691,5.243 13.819,5.129 13.957,5C14.232,4.741 14.547,4.421 14.859,4.107C15.172,3.794 15.482,3.487 15.729,3.271C15.838,3.175 15.926,3.107 15.996,3.059L15.996,3.051ZM15.998,7.559C15.745,7.559 15.494,7.571 15.244,7.594C12.244,7.866 9.515,9.74 8.256,12.645C6.577,16.518 8.025,21.045 11.639,23.227C15.252,25.408 19.933,24.58 22.578,21.291L21.799,20.664C19.462,23.569 15.346,24.298 12.154,22.371C8.963,20.444 7.691,16.464 9.174,13.043C10.656,9.622 14.429,7.828 18.018,8.84C21.606,9.851 23.889,13.351 23.367,17.043L24.357,17.184C24.949,13.004 22.352,9.022 18.289,7.877C17.527,7.662 16.757,7.558 15.998,7.559ZM20.99,13.225L20.99,13.227C20.894,13.223 20.799,13.246 20.717,13.295L13.184,17.596L11.463,14.648C11.376,14.487 11.206,14.387 11.023,14.387C10.749,14.387 10.523,14.612 10.523,14.887C10.523,14.981 10.55,15.073 10.6,15.152L12.57,18.527C12.708,18.762 13.014,18.844 13.25,18.709L21.213,14.162C21.372,14.074 21.471,13.906 21.471,13.724C21.471,13.457 21.257,13.235 20.99,13.225ZM23.154,18.047C22.968,18.698 22.693,19.321 22.338,19.898L23.189,20.422C23.592,19.767 23.904,19.061 24.115,18.322L23.154,18.047Z" style="fill:white;fill-rule:nonzero;"/>
    </g>
</svg>
